<?xml version="1.0" encoding="UTF-8" standalone="no"?>
<!-- Created with Inkscape (http://www.inkscape.org/) -->

<svg
   width="512"
   height="512"
   viewBox="0 0 512 512"
   version="1.1"
   id="svg5"
   inkscape:version="1.4 (86a8ad7, 2024-10-11)"
   sodipodi:docname="bblogo.maskable.path.svg"
   inkscape:export-filename="bblogo.maskable.192.png"
   inkscape:export-xdpi="36"
   inkscape:export-ydpi="36"
   xmlns:inkscape="http://www.inkscape.org/namespaces/inkscape"
   xmlns:sodipodi="http://sodipodi.sourceforge.net/DTD/sodipodi-0.dtd"
   xmlns:xlink="http://www.w3.org/1999/xlink"
   xmlns="http://www.w3.org/2000/svg"
   xmlns:svg="http://www.w3.org/2000/svg">
  <sodipodi:namedview
     id="namedview7"
     pagecolor="#ffffff"
     bordercolor="#000000"
     borderopacity="0.25"
     inkscape:showpageshadow="2"
     inkscape:pageopacity="0.0"
     inkscape:pagecheckerboard="0"
     inkscape:deskcolor="#d1d1d1"
     inkscape:document-units="px"
     showgrid="false"
     inkscape:zoom="0.63262407"
     inkscape:cx="217.34867"
     inkscape:cy="258.44733"
     inkscape:window-width="1680"
     inkscape:window-height="979"
     inkscape:window-x="-8"
     inkscape:window-y="-8"
     inkscape:window-maximized="1"
     inkscape:current-layer="layer1">
    <inkscape:page
       x="0"
       y="0"
       width="512"
       height="512"
       id="page2"
       margin="0"
       bleed="0" />
  </sodipodi:namedview>
  <defs
     id="defs2">
    <rect
       x="65.552734"
       y="66.168648"
       width="367.89478"
       height="401.95129"
       id="rect6319" />
    <linearGradient
       inkscape:collect="always"
       id="linearGradient365">
      <stop
         style="stop-color:#052767;stop-opacity:1;"
         offset="0"
         id="stop361" />
      <stop
         style="stop-color:#3a0647;stop-opacity:1;"
         offset="1"
         id="stop363" />
    </linearGradient>
    <linearGradient
       inkscape:collect="always"
       xlink:href="#linearGradient365"
       id="linearGradient367"
       x1="259.43076"
       y1="1.3904802"
       x2="261.09512"
       y2="510.40991"
       gradientUnits="userSpaceOnUse" />
  </defs>
  <g
     inkscape:label="Layer 1"
     inkscape:groupmode="layer"
     id="layer1">
    <rect
       style="fill:url(#linearGradient367);fill-opacity:1;stroke-width:0.264583"
       id="rect171"
       height="512"
       x="0"
       y="0"
       width="512" />
    <g
       aria-label="BB"
       transform="matrix(1.5879015,0,0,1.7406935,-35.928084,-44.928718)"
       id="text6317"
       style="font-size:192px;font-family:Georgia;-inkscape-font-specification:Georgia;letter-spacing:-17.3716px;white-space:pre;shape-inside:url(#rect6319);display:inline;fill:#ffffff">
      <path
         d="m 169.05273,177.42551 q 5.8125,3.9375 9.65625,10.3125 3.84375,6.375 3.84375,15.46875 0,9.28125 -4.03125,16.125 -4.03125,6.84375 -10.5,11.25 -6.28125,4.3125 -14.25,6.5625 -7.875,2.25 -16.3125,2.25 H 74.458984 v -6.65625 q 2.25,-0.1875 6.5625,-0.75 4.3125,-0.65625 6.1875,-1.5 2.90625,-1.3125 4.125,-3.46875 1.21875,-2.25 1.21875,-5.71875 v -95.625 q 0,-3.1875 -1.125,-5.625 -1.03125,-2.4375 -4.21875,-3.9375 -2.8125,-1.40625 -6.28125,-2.15625 -3.46875,-0.75 -5.8125,-0.9375 v -6.65625 h 61.406246 q 7.125,0 13.59375,1.40625 6.5625,1.40625 12.46875,4.96875 5.53125,3.28125 9.09375,8.90625 3.5625,5.625 3.5625,13.6875 0,7.03125 -2.53125,12.5625 -2.53125,5.4375 -7.125,9.375 -4.3125,3.75 -9.9375,6.375 -5.53125,2.53125 -12,3.9375 v 0.84375 q 5.71875,0.65625 12.75,2.90625 7.125,2.15625 12.65625,6.09375 z m -22.59375,-20.0625 q 3.46875,-4.03125 4.78125,-8.8125 1.40625,-4.78125 1.40625,-11.34375 0,-10.96875 -6,-17.15625 -6,-6.28125 -18.9375,-6.28125 -3,0 -7.59375,0.1875 -4.5,0.0937 -7.59375,0.1875 v 51.09375 h 11.90625 q 7.6875,0 13.125,-1.96875 5.53125,-1.96875 8.90625,-5.90625 z m 12.9375,42.46875 q 0,-11.8125 -7.96875,-19.40625 -7.875,-7.59375 -22.59375,-7.59375 -6,0 -10.125,0.1875 -4.125,0.0937 -6.1875,0.1875 v 46.875 q 0,5.90625 4.78125,8.90625 4.78125,3 13.3125,3 13.96875,0 21.375,-8.15625 7.40625,-8.15625 7.40625,-24 z"
         id="path365" />
      <path
         d="m 277.21239,177.42551 q 5.8125,3.9375 9.65625,10.3125 3.84375,6.375 3.84375,15.46875 0,9.28125 -4.03125,16.125 -4.03125,6.84375 -10.5,11.25 -6.28125,4.3125 -14.25,6.5625 -7.875,2.25 -16.3125,2.25 h -63 v -6.65625 q 2.25,-0.1875 6.5625,-0.75 4.3125,-0.65625 6.1875,-1.5 2.90625,-1.3125 4.125,-3.46875 1.21875,-2.25 1.21875,-5.71875 v -95.625 q 0,-3.1875 -1.125,-5.625 -1.03125,-2.4375 -4.21875,-3.9375 -2.8125,-1.40625 -6.28125,-2.15625 -3.46875,-0.75 -5.8125,-0.9375 v -6.65625 h 61.40625 q 7.125,0 13.59375,1.40625 6.5625,1.40625 12.46875,4.96875 5.53125,3.28125 9.09375,8.90625 3.5625,5.625 3.5625,13.6875 0,7.03125 -2.53125,12.5625 -2.53125,5.4375 -7.125,9.375 -4.3125,3.75 -9.9375,6.375 -5.53125,2.53125 -12,3.9375 v 0.84375 q 5.71875,0.65625 12.75,2.90625 7.125,2.15625 12.65625,6.09375 z m -22.59375,-20.0625 q 3.46875,-4.03125 4.78125,-8.8125 1.40625,-4.78125 1.40625,-11.34375 0,-10.96875 -6,-17.15625 -6,-6.28125 -18.9375,-6.28125 -3,0 -7.59375,0.1875 -4.5,0.0937 -7.59375,0.1875 v 51.09375 h 11.90625 q 7.6875,0 13.125,-1.96875 5.53125,-1.96875 8.90625,-5.90625 z m 12.9375,42.46875 q 0,-11.8125 -7.96875,-19.40625 -7.875,-7.59375 -22.59375,-7.59375 -6,0 -10.125,0.1875 -4.125,0.0937 -6.1875,0.1875 v 46.875 q 0,5.90625 4.78125,8.90625 4.78125,3 13.3125,3 13.96875,0 21.375,-8.15625 7.40625,-8.15625 7.40625,-24 z"
         id="path367" />
    </g>
  </g>
</svg>
